<?xml version="1.0" encoding="UTF-8" standalone="no"?><!DOCTYPE svg PUBLIC "-//W3C//DTD SVG 1.1//EN" "http://www.w3.org/Graphics/SVG/1.1/DTD/svg11.dtd"><svg width="100%" height="100%" viewBox="0 0 11113 28092" version="1.1" xmlns="http://www.w3.org/2000/svg" xmlns:xlink="http://www.w3.org/1999/xlink" xml:space="preserve" xmlns:serif="http://www.serif.com/" style="fill-rule:evenodd;clip-rule:evenodd;stroke-linejoin:round;stroke-miterlimit:2;"><g><path d="M5422.467,27674.974l264.201,0c2111.338,-269.26 2433.923,66.373 3065.503,-169.933c379.955,-142.16 -36.671,-1289.595 -115.682,-1394.835c-373.91,-498.036 -443.154,-1799.446 -485.768,-2306.56c-243.773,-2900.941 -1371.227,-3318.79 -1036.741,-4041.147c21.808,-47.097 225.783,-487.599 295.166,-577.726c469.228,-609.516 515.191,-1513.535 1430.318,-2798.833c630.414,-885.417 538.26,-1948.978 494.861,-2066.89c-42.006,-114.129 -205.395,-812.812 -398.581,-740.841c-4.13,1.539 8.276,46.938 -1823.746,412.493c-1667.117,332.65 -1765.552,87.431 -1808.46,226.785c-223.295,725.2 -864.34,1381.507 -1380.992,2588.618c-66.083,154.397 -683.335,1596.552 -773.64,1951.56c-148.278,582.915 -192.693,595.6 -38.11,1035.268c1025.95,2918.014 1155.898,2933.115 982.982,3428.294c-196.117,561.618 -2247.062,704.112 -1858.899,1130.35c488.163,536.047 1855.511,185.613 2131.064,176.528c717.878,-23.669 847.032,284.465 1329.426,-160.548c131.907,-121.686 -33.088,-777.085 -44.595,-793.612c-142.259,-204.324 -105.058,-255.918 -201.314,-509.533c-349.215,-920.118 9.961,-1532.515 -439.855,-2329.842c-634.753,-1125.139 133.823,-2707.292 213.801,-3903.783c9.32,-139.428 175.937,-189.437 184.519,-55.78c8.984,139.915 -237.759,1386.382 -261.511,1506.365c-268.465,1356.196 -208.381,1362.766 -233.009,1480.072c-85.005,404.89 619.436,1515.759 805.977,1979.247c35.516,88.244 660.878,1769.242 661.199,1770.38c114.032,404.064 879.881,1969.557 594.65,2270.242c-1023.353,1078.801 -2146.459,1021.46 -2194.884,1377.054c-58.128,426.853 342.57,446.52 642.117,516.609Z" style="fill:#e9e9e9;fill-opacity:0.98;"/><path d="M9055.233,13024.984c-41.815,-406.659 -36.742,-407.094 -310.808,-1239.035c-59.729,-181.311 -158.165,-480.117 -165.663,-2380.441c-1.673,-424.069 -125.06,-983.43 432.82,-1275.763c774.243,-405.709 877.939,-1263.689 656.785,-1652.95c-537.502,-946.074 -858.702,-181.733 -2580.922,-225.458c-167.819,-4.261 -449.491,-178.946 -526.774,-119.208c-242.333,187.319 -206.827,248.49 -715.924,418.904c-1298.291,434.589 -1407.452,1359.87 -1454.572,1506.413c-35.426,110.173 123.455,58.291 134.497,54.686c33.588,-10.968 400.727,-130.855 418.573,-140.939c203.556,-115.013 805.178,-164.113 876.356,-169.923c1147.528,-93.653 1634.131,1029.305 342.04,1549.96c-863.099,347.79 -1790.269,194.558 -1804.621,316.621c-58.275,495.615 251.506,1901.241 287.387,2064.051c232.716,1055.945 147.945,1467.343 256.846,1845.134c123.009,426.732 568.459,724.03 3956.423,-154.091c207.007,-53.654 185.06,-206.741 197.557,-397.963Z" style="fill:#e9e9e9;fill-opacity:0.98;"/><path d="M4193.807,5230.943c120.137,1088.103 354.452,995.149 502.352,1223.815c44.613,68.975 69.745,547.642 190.531,432.084c556.625,-532.53 1317.924,-522.214 1530.45,-870.841c24.997,-41.004 -63.801,-332.756 225.302,-675.689c39.561,-46.928 161.705,-418.114 91.797,-497.96c-113.304,-129.409 -184.105,-112.569 -138.415,-296.549c343.248,-1382.156 -1139.753,-1864.481 -1905.774,-1418.983c-636.424,370.127 -144.427,840.936 -738.125,1320.441c-9.387,7.582 -100.408,128.759 121.424,89.478c143.481,-25.407 81.07,438.559 120.457,694.205Z" style="fill:#e9e9e9;fill-opacity:0.98;"/><path d="M9570.42,620.833l-211.361,0c39.21,70.802 625.508,308.522 649.759,675.066c30.693,463.911 -201.178,-60.388 -208.361,-76.631c-165.117,-373.358 -786.487,-502.93 -554.797,-339.537c872.187,615.084 265.475,1437.624 -369.576,872.91c-38.531,-34.263 -143.258,48.732 56.341,206.949c228.852,181.406 330.73,513.778 407.913,567.837c902.551,632.136 -382.116,3094.824 -52.748,3328.786c574.004,407.736 617.017,490.59 644.518,1147.201c1.386,33.1 50.819,43.208 80.085,15.421c411.246,-390.465 416.004,-895.006 496.14,-1100.776l0,-1083.223c-132.362,-650.229 -70.709,-805.001 -164.314,-1295.672c-225.402,-1181.543 156.19,-1822.507 -52.008,-2015.255c-277.405,-256.818 12.792,-550.371 -721.591,-903.076Z" style="fill:#e9e9e9;fill-opacity:0.97;"/><path d="M627.248,10171.694l0,449.141c98.204,731.881 187.287,791.535 244.812,830.057c153.802,102.994 189.2,61.839 277.967,222.458c160.225,289.918 486.568,12.713 588.489,195.554c229.333,411.411 395.683,6.576 509.902,104.548c800.02,686.219 260.52,-789.316 460.443,-1695.022c119.554,-541.613 -548.835,-247.178 -687.507,-953.093c-43.069,-219.246 74.416,-335.524 -60.533,-291.803c-153.924,49.868 -1104.102,457.506 -1242.576,820.535c-39.495,103.542 -84.814,291.925 -90.997,317.624Z" style="fill:#e9e9e9;fill-opacity:0.97;"/><path d="M4708.98,9418.806c242.24,-5.339 717.128,-11.562 1348.065,-196.959c386.754,-113.645 710.955,-475.891 668.21,-662.942c-224.037,-980.386 -1198.978,-557.572 -1806.422,-404.556c-203.614,51.291 -189.584,86.178 -2479.163,861.816c-781.459,264.734 261.659,842.046 332.123,750.322c291.194,-379.056 1042.526,-249.654 1937.187,-347.681Z" style="fill:#e9e9e9;fill-opacity:0.97;"/><path d="M1882.312,24927.334c4745.644,-8.802 4785.314,18.803 4791.359,-36.215c11.22,-102.109 -140.893,-609.806 -272.558,-618.041c-422.68,-26.436 -464.064,-32.935 -549.487,168.579c-228.783,539.705 -1254.545,131.177 -1853.421,294.605c-311.584,85.028 -731.042,87.154 -795.027,87.478c-1160.052,5.878 -1141.173,-575.109 -1240.641,-577.078c-86.28,-1.708 -1032.782,-20.44 -1076.808,63.982c-52.27,100.231 -47.85,99.818 -186.144,421.612c-5.321,12.38 -67.554,157.191 -37.913,164.12c107.152,25.048 1122.959,30.439 1220.641,30.957Z" style="fill:#e9e9e9;fill-opacity:0.97;"/><path d="M9213.555,1424.92c4.056,238.245 -78.805,393.557 146.041,320.336c5.39,-1.755 270.355,-4.851 102.64,-422.409c-33.654,-83.788 -326.075,-237.401 -374.583,-368.714c-94.84,-256.732 -156.158,13.664 -122.496,47.814c178.974,181.569 180.229,180.412 248.398,422.974Z" style="fill:#e9e9e9;fill-opacity:0.93;"/><path d="M9055.86,1454.852c-7.846,-24.199 -73.278,-226.013 -171.42,-267.824c-165.866,-70.662 -28.308,267.054 -19.583,288.477c10.086,24.762 210.155,349.211 191.002,-20.653Z" style="fill:#e9e9e9;fill-opacity:0.95;"/><path d="M8254.167,24158.333l170.833,820.833l970.833,-58.333l-354.167,-700l-787.5,-62.5Z" style="fill:#e9e9e9;"/></g><g><path d="M9569.731,470.833l-267.334,0c-7.722,9.811 -78.816,100.137 -109.716,110.997c-272.337,95.711 -272.374,100.123 -464.556,320.411c-230.346,264.034 30.453,350.651 -138.764,655.76c-127.568,230.012 366.211,649.203 407.632,749.051c98.583,237.64 223.13,291.699 359.562,475.778c411.12,554.699 -263.747,2315.373 -299.549,2860.135c-20.568,312.967 -223.539,144.693 -418.594,250.467c-360.968,195.746 -2492.747,395.859 -1965.913,-284.939c467.661,-604.331 149.379,-934.256 148.86,-934.581c-105.294,-65.94 51.745,-596.463 -6.928,-713.593c-131.108,-261.738 -52.935,-1208.964 -1708.612,-1137.162c-1103.023,47.835 -961.727,1244.157 -1129.682,1368.651c-475.055,352.127 -183.011,517.917 -128.115,520.969c177.646,9.878 149.144,68.262 150.794,182.434c1.749,121.033 14.559,1007.441 358.416,1470.001c207.913,279.686 196.245,283.357 299.153,613.067c59.44,190.442 -358.995,343.271 -446.358,1204.249c-6.713,66.158 -33.97,47.506 -494.414,215.797c-1163.466,425.243 -1187.347,353.414 -1279.532,408.629c-235.196,140.871 -258.863,20.938 -567.245,87.885c-421.279,91.456 -503.693,251.721 -592.887,292.089c-562.449,254.555 -584.44,275.633 -808.912,867.829c-0,213.867 -0,427.734 -0,641.602c65.465,444.48 78.506,442.021 80.164,480.997c20.669,485.729 346.811,418.598 430.26,542.997c324.877,484.295 528.613,170.013 643.847,318.643c262.623,338.733 569.2,106.731 616.92,160.274c192.825,216.355 421.524,82.414 453.113,63.913c341.759,-200.156 194.254,-713.284 155.232,-950.184c-124.769,-757.46 108.181,-756.278 43.861,-1258.722c-59.286,-463.117 911.225,-424.099 1225.092,-421.441c84.546,0.716 65.888,460.647 120.522,794.907c23.127,141.495 264.22,1616.535 308.788,1765.349c217.83,727.336 24.875,1201.298 255.728,1610.277c163.044,288.847 463.98,193.376 315.193,456.306c-323.98,572.522 -298.999,586.688 -336.326,629.934c-189.384,219.416 -1150.595,1981.666 -1250.662,2356.749c-199.481,747.715 -687.43,1407.131 -678.108,2272.229c5.355,496.931 977.001,2310.633 1100.661,3342.047c51.35,428.294 -85.646,402.626 -507.523,606.472c-728.829,352.16 -1026.679,217.124 -1376.527,578.695c-158.544,163.857 -1087.533,-55.128 -1322.029,122.006c-3.899,19.44 -4.806,16.806 -33.381,78.665c-150.423,275.671 -100.763,292.057 -244.825,565.122c0,0 0,213.867 0,213.867c21.828,16.817 18.258,11.432 38.01,29.283c99.817,90.213 6225.344,-16.825 6275.877,57.055c299.693,438.155 -117.957,744.314 -291.591,867.074c-725.257,512.76 -739.916,482.038 -1566.901,793.299c-257.915,97.074 -857.819,862.304 476.89,1073.636l534.668,0c817.021,-102.635 811.873,-182.191 1632.086,-106.079c1100.16,102.09 1505.437,-56.162 1506.885,-522.097c1.479,-476.251 -60.837,-465.908 -145.399,-935.478c-38.273,-212.53 -209.585,-402.143 -235.953,-431.327c-85.548,-94.687 -272.211,-761.98 -163.823,-762.639c591.188,-3.592 947.249,51.795 968.233,-115.052c18.274,-145.304 -350.445,-867.545 -488.519,-869.982c-115.55,-2.039 -231.135,-0.553 -346.702,-0.923c-27.022,-0.087 -332.392,-1.065 -335.324,-40.666c-122.899,-1660.435 -203.481,-1647.887 -494.905,-2617.631c-55.131,-183.456 -712.602,-1310.268 -568.504,-1528.526c16.452,-24.919 -4.992,-33.548 137.667,-346.934c95.521,-209.835 292.784,-326.215 824.269,-1658.533c428.667,-1074.576 585.295,-991.572 1095.993,-2032.029c233.788,-476.301 370.003,-1447.745 -88.083,-2325.749c-126.727,-242.896 97.483,-560.434 -116.91,-1198.234c-565.524,-1682.376 -202.259,-1738.336 -388.517,-3502.864c-59.952,-567.955 817.41,-513.352 1120.951,-1411.415c44.827,-132.627 474.8,-386.496 617.267,-748.26c51.78,-131.485 76.406,-113.691 120.614,-245.779c22.263,-66.52 62.126,-768.017 93.853,-828.598l0,-641.602c-145.333,-1619.339 -297.463,-1883.3 -222.971,-2485.587c107.498,-869.142 0.91,-1028.738 -48.105,-1102.13c-233.207,-349.185 -104.325,-516.692 -405.047,-698.848c-36.779,-22.278 -88.948,-104.332 -223.975,-168.94c-30.106,-14.405 -192.45,-45.807 -209.338,-49.073l-487.998,13221.117c10.255,45.618 1.476,45.693 30.715,80.805c198.021,257.574 527.397,1420.679 -276.87,2583.273c-886.894,1282.032 -819.079,1779.192 -1304.988,2596.721c-185.137,311.488 -443.747,783.391 -472.989,886.725c-35.199,124.389 -98.723,348.873 523.488,1528.775c622.543,1180.531 496.03,3130.537 811.503,4272.355c72.599,262.763 641.745,1046.531 473.175,1708.349c-32.788,128.727 -78.442,307.968 -1647.693,205.55c-847.314,-55.301 -837.417,120.967 -1685.02,111.773c-846.373,-9.181 -934.858,-568.762 -503.076,-729.674c669.879,-249.643 681.272,-221.692 1204.961,-537.094c470.159,-283.162 423.437,-342.982 560.867,-429.4c612.118,-384.909 8.938,-1224.896 -583.368,-2953.663c-84.527,-246.708 -565.708,-1510.882 -618.455,-1603.586c-418.783,-736.037 -370.786,-761.068 -417.886,-817.42c-518.109,-619.881 -74.947,-1835.3 228.533,-3669.487c60.255,-364.17 -165.175,-238.604 -170.575,-188.847c-136.818,1260.545 -884.299,3158.706 -186.344,4094.01c257.482,345.043 209.229,1911.261 343.673,2165.41c181.413,342.937 105.429,363.983 125.176,390.146c228.418,302.635 145.334,397.66 177.291,489.088c32.501,92.983 324.11,927.264 -1045.735,649.912c-471.566,-95.478 -1598.632,364.038 -2277.816,-77.876c-679.786,-442.305 1038.668,-614.297 1580.501,-1007.719c569.289,-413.357 -202.235,-1841.971 -571.238,-2910.427c-22.696,-65.716 -275.694,-798.277 -288.289,-819.852c-226.217,-387.482 157.17,-1100.7 489.903,-2036.141c675.943,-1900.333 1345.563,-2384.199 1750.21,-3470.82c11.498,-30.877 1005.344,-29.121 1056.536,-59.064c103.031,-60.264 1782.49,-317.956 2246.28,-452.834c331.896,-96.521 391.102,-158.871 447.529,1.012l487.998,-13221.117l-5173.208,7609.55c153.047,-352.786 5.507,-442.787 523.629,-964.235c663.068,-667.325 1102.894,-415.435 1636.363,-956.899c124.432,-126.297 139.945,106.687 660.814,107.771c1536.682,3.199 1827.56,-516.951 2232.902,-76.644c488.344,530.468 440.539,1403.999 -419.587,1904.875c-460.48,268.151 -461.192,560.814 -461.343,622.819c-0.52,213.649 25.523,1943.019 28.067,2111.973c13.156,873.638 264.751,1192.703 357.787,1710.806c4.306,23.981 7.408,20.558 87.936,291.591c28.03,94.34 6.263,514.402 -119.119,554.664c-97.834,31.417 -738.42,267.487 -2750.108,566.024c-95.827,14.221 -981.169,145.607 -1191.62,-215.554c-213.979,-367.217 -96.912,-923.573 -225.021,-1490.506c-295.078,-1305.832 -468.178,-2611.928 -372.938,-2613.829c438.699,-8.758 1430.558,-14.449 2168.763,-453.104c673.44,-400.171 552.45,-1868.896 -1501.19,-1263.845c-48.024,14.149 -489.419,144.194 -590.716,206.635c-43.636,-1.691 -45.255,0.743 -64.621,-42.543l5173.208,-7609.55l-5008.015,2757.997c44.54,-33.454 300.306,-225.559 651.13,-246.738c665.815,-40.195 1360,341.137 1406.443,978.575c47.472,651.564 -179.239,757.662 65.376,851.38c143.035,54.8 -0.33,461.996 -94.77,581.108c-255.096,321.74 -152.511,384.497 -154.547,544.541c-2.012,158.098 -595.046,441.841 -692.13,469.431c-702.501,199.635 -890.51,492.071 -904.794,494.848c-34.368,6.682 -98.35,-346.244 -103.931,-377.03c-31.114,-171.625 -306.094,-136.777 -485.406,-961.186c-178.299,-819.753 103.24,-1135.079 -268.138,-1028.272c-147.752,42.493 48.9,-136.261 58.129,-144.65c449.559,-408.642 54.465,-656.005 522.639,-1162.007l5008.015,-2757.997l-725.747,1276.935c365.166,364.756 1106.366,268.289 765.368,-520.449c-120.543,-278.819 -643.183,-484.872 -254.236,-363.733c560.554,174.587 472.132,789.374 665.633,606.137c0.892,-0.845 58.714,-349.197 -251.507,-597.41c-260.213,-208.202 -573.183,-254.745 -330.995,-241.654c603.239,32.606 653.428,665.909 822.804,872.262c259.014,315.56 -84.02,378.671 19.676,1575.148c85.863,990.711 449.788,2698.735 2.311,3550.26c-11.977,22.791 -335.658,533.578 -334.936,377.529c5.214,-1126.807 -751.958,-1010.511 -711.247,-1309.83c102.025,-750.131 797.376,-2693.515 178.579,-3134.459c-217.894,-155.267 -167.512,-357.424 -480.389,-617.604c-140.75,-117.044 -135.846,-196.716 -136.906,-202.08c15.282,1.962 30.564,3.923 45.846,5.885l725.747,-1276.935l-6937.38,10572.805c20.258,176.873 257.135,1360.749 -247.481,1032.721c-108.514,-70.54 -107.86,-205.734 -322.129,-61.948c-179.522,120.469 -313.333,-141.876 -326.687,-168.057c-104.271,-204.429 -235.768,98.532 -476.096,-87.146c-163.223,-126.106 -100.306,-201.447 -294.168,-272.263c-333.642,-121.876 -213.486,-435.668 -341.565,-1058.487c-20.236,-98.402 17.636,-137.833 80.562,-478.82c74.407,-403.2 594.863,-522.198 794.503,-692.947c2.614,-2.235 607.335,-354.449 505.577,-137.371c-44.232,94.358 -13.945,592.192 457.974,765.884c402.133,148.007 184.809,301.167 169.51,1158.434l6937.38,-10572.805l-3119.374,8523.9c-775.633,665.233 -3409.202,258.419 -3662.338,717.308c-61.936,112.278 -94.492,34.976 -307.154,-49.323c-16.392,-6.498 -694.133,-473.728 3.873,-652.018c1756.279,-448.603 3969.076,-1846.72 4232.083,-455.277c33.043,174.814 -235.654,412.102 -266.464,439.311l3119.374,-8523.9l-7476.098,24011.451c483.425,567.578 1836.156,275.486 1993.157,241.585c529.869,-114.413 1709.318,298.611 1805.806,-391.9c9.359,-66.98 562.357,-110.312 602.726,25.181c72.032,241.764 245.589,553.729 159.748,554.23c-480.076,2.806 -6001.245,35.081 -6001.025,-19.966c0.233,-58.297 206.358,-492.845 226.268,-534.82c31.688,-66.803 31.453,-72.952 108.014,-73.976c975.085,-13.043 1003.564,-52.321 1034.22,24.553c69.589,174.502 67.5,171.383 71.085,175.113l7476.098,-24011.451l-4127.489,21062.581c74.603,237.9 515.387,1277.109 600.035,1620.069c17.703,71.724 52.676,54.333 335.029,860.538c2.453,7.004 31.359,89.54 -16.938,91.21c-37.73,1.305 -461.63,15.962 -466.715,-69.838c-27.688,-467.199 -59.141,-457.9 -245.877,-884.397c-122.307,-279.345 -292.37,-1620.722 -205.534,-1617.58l4127.489,-21062.581l-1136.168,24341.56c-21.329,-285.778 -112.798,-527.867 -12.804,-529.813c217.054,-4.223 540.209,-20.219 578.185,52.522c259.417,496.892 276.146,487.537 293.099,533.162c13.173,35.451 -11.805,42.773 -470.848,42.301c-249.304,-0.256 -357.942,135.059 -387.633,-98.172l1136.168,-24341.56l-603.799,450.446c25.691,-27.209 26.777,-22.242 47.39,-55.138c38.023,-60.678 43.541,17.023 43.817,20.896c16.629,234.153 322.99,276.372 393.577,457.132c107.905,276.326 99.764,390.68 -200.506,388.495c-133.451,-0.971 188.173,-366.767 -287.541,-748.518c0.096,-5.035 0.805,-42.037 3.265,-62.868l603.799,-450.446l-580.135,1149.562c-225.222,-234.366 -235.315,-617.318 -40.611,-356.974c17.214,23.017 217.253,290.496 40.611,356.974l580.135,-1149.562Z" style="fill:#b7b7b7;fill-opacity:0.97;"/></g></svg>